<svg width="500" height="300" viewBox="0 0 500 300" fill="none" xmlns="http://www.w3.org/2000/svg">
<rect x="47" y="87" width="121" height="121" rx="27" fill="#0C0C0C"/>
<rect x="47" y="87" width="121" height="121" rx="27" fill="#0C0C0C"/>
<path d="M219.455 177H199.739V118.818H219.852C225.629 118.818 230.591 119.983 234.739 122.312C238.905 124.623 242.106 127.947 244.341 132.284C246.576 136.621 247.693 141.811 247.693 147.852C247.693 153.913 246.566 159.121 244.312 163.477C242.078 167.833 238.848 171.176 234.625 173.506C230.42 175.835 225.364 177 219.455 177ZM210.278 167.881H218.943C222.996 167.881 226.377 167.142 229.085 165.665C231.794 164.169 233.83 161.943 235.193 158.989C236.557 156.015 237.239 152.303 237.239 147.852C237.239 143.402 236.557 139.708 235.193 136.773C233.83 133.818 231.813 131.612 229.142 130.153C226.491 128.676 223.195 127.938 219.256 127.938H210.278V167.881ZM270.971 177.852C266.596 177.852 262.818 176.943 259.636 175.125C256.473 173.288 254.039 170.693 252.335 167.341C250.63 163.97 249.778 160.002 249.778 155.438C249.778 150.949 250.63 147.009 252.335 143.619C254.058 140.21 256.463 137.559 259.551 135.665C262.638 133.752 266.265 132.795 270.431 132.795C273.121 132.795 275.659 133.231 278.045 134.102C280.45 134.955 282.571 136.28 284.409 138.08C286.265 139.879 287.723 142.17 288.784 144.955C289.844 147.72 290.374 151.015 290.374 154.841V157.994H254.607V151.062H280.516C280.498 149.093 280.071 147.341 279.238 145.807C278.405 144.254 277.24 143.032 275.744 142.142C274.266 141.252 272.543 140.807 270.573 140.807C268.471 140.807 266.624 141.318 265.034 142.341C263.443 143.345 262.202 144.67 261.312 146.318C260.441 147.947 259.996 149.737 259.977 151.688V157.739C259.977 160.277 260.441 162.455 261.369 164.273C262.297 166.072 263.594 167.455 265.261 168.42C266.927 169.367 268.878 169.841 271.113 169.841C272.609 169.841 273.963 169.633 275.176 169.216C276.388 168.78 277.439 168.146 278.329 167.312C279.219 166.479 279.891 165.447 280.346 164.216L289.948 165.295C289.342 167.833 288.187 170.049 286.482 171.943C284.797 173.818 282.638 175.277 280.005 176.318C277.373 177.341 274.361 177.852 270.971 177.852ZM293.475 177V133.364H303.304V140.778H303.816C304.725 138.278 306.23 136.328 308.333 134.926C310.435 133.506 312.944 132.795 315.861 132.795C318.816 132.795 321.306 133.515 323.333 134.955C325.378 136.375 326.818 138.316 327.651 140.778H328.105C329.071 138.354 330.7 136.422 332.992 134.983C335.302 133.525 338.039 132.795 341.202 132.795C345.217 132.795 348.494 134.064 351.032 136.602C353.569 139.14 354.838 142.843 354.838 147.71V177H344.526V149.301C344.526 146.593 343.806 144.614 342.367 143.364C340.927 142.095 339.166 141.46 337.083 141.46C334.602 141.46 332.66 142.237 331.259 143.79C329.876 145.324 329.185 147.322 329.185 149.784V177H319.1V148.875C319.1 146.621 318.418 144.822 317.054 143.477C315.71 142.133 313.948 141.46 311.77 141.46C310.293 141.46 308.948 141.839 307.736 142.597C306.524 143.335 305.558 144.386 304.838 145.75C304.119 147.095 303.759 148.667 303.759 150.466V177H293.475ZM378.99 177.852C374.615 177.852 370.836 176.943 367.655 175.125C364.492 173.288 362.058 170.693 360.353 167.341C358.649 163.97 357.797 160.002 357.797 155.438C357.797 150.949 358.649 147.009 360.353 143.619C362.077 140.21 364.482 137.559 367.569 135.665C370.656 133.752 374.283 132.795 378.45 132.795C381.139 132.795 383.677 133.231 386.064 134.102C388.469 134.955 390.59 136.28 392.427 138.08C394.283 139.879 395.742 142.17 396.802 144.955C397.863 147.72 398.393 151.015 398.393 154.841V157.994H362.626V151.062H388.535C388.516 149.093 388.09 147.341 387.257 145.807C386.423 144.254 385.259 143.032 383.762 142.142C382.285 141.252 380.562 140.807 378.592 140.807C376.49 140.807 374.643 141.318 373.052 142.341C371.461 143.345 370.221 144.67 369.331 146.318C368.459 147.947 368.014 149.737 367.995 151.688V157.739C367.995 160.277 368.459 162.455 369.387 164.273C370.316 166.072 371.613 167.455 373.28 168.42C374.946 169.367 376.897 169.841 379.132 169.841C380.628 169.841 381.982 169.633 383.194 169.216C384.406 168.78 385.458 168.146 386.348 167.312C387.238 166.479 387.91 165.447 388.365 164.216L397.967 165.295C397.361 167.833 396.206 170.049 394.501 171.943C392.816 173.818 390.656 175.277 388.024 176.318C385.391 177.341 382.38 177.852 378.99 177.852ZM420.812 177.852C416.437 177.852 412.658 176.943 409.476 175.125C406.314 173.288 403.88 170.693 402.175 167.341C400.471 163.97 399.618 160.002 399.618 155.438C399.618 150.949 400.471 147.009 402.175 143.619C403.899 140.21 406.304 137.559 409.391 135.665C412.478 133.752 416.105 132.795 420.272 132.795C422.961 132.795 425.499 133.231 427.886 134.102C430.291 134.955 432.412 136.28 434.249 138.08C436.105 139.879 437.564 142.17 438.624 144.955C439.685 147.72 440.215 151.015 440.215 154.841V157.994H404.448V151.062H430.357C430.338 149.093 429.912 147.341 429.079 145.807C428.245 144.254 427.081 143.032 425.584 142.142C424.107 141.252 422.384 140.807 420.414 140.807C418.312 140.807 416.465 141.318 414.874 142.341C413.283 143.345 412.043 144.67 411.153 146.318C410.281 147.947 409.836 149.737 409.817 151.688V157.739C409.817 160.277 410.281 162.455 411.209 164.273C412.137 166.072 413.435 167.455 415.101 168.42C416.768 169.367 418.719 169.841 420.954 169.841C422.45 169.841 423.804 169.633 425.016 169.216C426.228 168.78 427.279 168.146 428.17 167.312C429.06 166.479 429.732 165.447 430.187 164.216L439.789 165.295C439.183 167.833 438.028 170.049 436.323 171.943C434.637 173.818 432.478 175.277 429.846 176.318C427.213 177.341 424.202 177.852 420.812 177.852ZM465.105 133.364V141.318H440.02V133.364H465.105ZM446.213 122.909H456.497V163.875C456.497 165.258 456.705 166.318 457.122 167.057C457.558 167.777 458.126 168.269 458.827 168.534C459.527 168.799 460.304 168.932 461.156 168.932C461.8 168.932 462.387 168.884 462.918 168.79C463.467 168.695 463.884 168.61 464.168 168.534L465.901 176.574C465.351 176.763 464.565 176.972 463.543 177.199C462.539 177.426 461.308 177.559 459.849 177.597C457.274 177.672 454.954 177.284 452.889 176.432C450.825 175.561 449.187 174.216 447.974 172.398C446.781 170.58 446.194 168.307 446.213 165.58V122.909Z" fill="#0C0C0C"/>
<rect x="122" y="87" width="16" height="121" fill="white"/>
<path fill-rule="evenodd" clip-rule="evenodd" d="M122 87V95C122 95 120.269 90 107 87C112.858 87 122 87 122 87Z" fill="white"/>
<path fill-rule="evenodd" clip-rule="evenodd" d="M122 208V200C122 200 120.269 205 107 208C112.858 208 122 208 122 208Z" fill="white"/>
<rect x="76" y="87" width="16" height="121" fill="white"/>
<path fill-rule="evenodd" clip-rule="evenodd" d="M142 87H132.642C132.642 87 138.5 89 137.956 96.4544C140.209 96.8587 142 97.2164 142 97.2164V87Z" fill="black"/>
<path fill-rule="evenodd" clip-rule="evenodd" d="M142 208H132.642C132.642 208 138.5 206 137.956 198.546C140.209 198.141 142 197.784 142 197.784V208Z" fill="black"/>
</svg>
